<svg viewBox="0 0 1778 1801" fill="none" xmlns="http://www.w3.org/2000/svg">
    <path opacity="0.2" fill-rule="evenodd" clip-rule="evenodd"
        d="M1778 1251.97C1635.3 1421.71 1419.5 1529.88 1178.02 1529.88C1132.52 1529.88 1087.93 1526.04 1044.58 1518.67C1020.97 1622.3 975.98 1717.98 914.397 1801H840.011C910.729 1717 962.046 1616.68 987.265 1506.72C649.793 1423.1 399.989 1122.7 399.989 764.941C399.989 727.312 402.753 690.317 408.091 654.142C368.214 647.413 327.208 643.906 285.358 643.906C183.927 643.906 87.4525 664.506 0 701.661V638.897C88.3543 604.633 184.62 585.809 285.358 585.809C330.855 585.809 375.44 589.649 418.795 597.016C496.639 255.329 807 0 1178.02 0C1419.5 0 1635.3 108.169 1778 277.915V374.709C1649.25 184.003 1428.78 58.0968 1178.02 58.0968C834.811 58.0968 548.361 293.94 476.11 608.968C813.582 692.594 1063.39 992.99 1063.39 1350.75C1063.39 1388.38 1060.62 1425.37 1055.28 1461.55C1095.16 1468.28 1136.17 1471.79 1178.02 1471.79C1428.78 1471.79 1649.25 1345.88 1778 1155.17V1251.97ZM997.885 1449.46C687.408 1370.86 458.524 1093.84 458.524 764.941C458.524 731.447 460.898 698.491 465.49 666.228C775.966 744.828 1004.85 1021.85 1004.85 1350.75C1004.85 1384.24 1002.48 1417.2 997.885 1449.46Z"
        fill="url(#paint0_linear_1616_783)" />
    <defs>
        <linearGradient id="paint0_linear_1616_783" x1="889" y1="0" x2="889" y2="1801"
            gradientUnits="userSpaceOnUse">
            <stop stop-color="#2452DB" stop-opacity="0" />
            <stop offset="1" stop-color="#2452DB" stop-opacity="0.2" />
        </linearGradient>
    </defs>
</svg>