<svg xmlns="http://www.w3.org/2000/svg" viewBox="0 0 22 24">
    <path
        d="M10.8009 0C9.94751 0 9.25805 0.670312 9.25805 1.5V2.4C5.73845 3.09375 3.0867 6.12187 3.0867 9.75V10.6313C3.0867 12.8344 2.25261 14.9625 0.748342 16.6125L0.391561 17.0016C-0.0134339 17.4422 -0.109861 18.075 0.136028 18.6141C0.381918 19.1531 0.936375 19.5 1.54387 19.5H20.0579C20.6654 19.5 21.215 19.1531 21.4657 18.6141C21.7165 18.075 21.6152 17.4422 21.2102 17.0016L20.8534 16.6125C19.3492 14.9625 18.5151 12.8391 18.5151 10.6313V9.75C18.5151 6.12187 15.8633 3.09375 12.3437 2.4V1.5C12.3437 0.670312 11.6543 0 10.8009 0ZM12.985 23.1234C13.5635 22.5609 13.8866 21.7969 13.8866 21H7.71521C7.71521 21.7969 8.03825 22.5609 8.61681 23.1234C9.19537 23.6859 9.98126 24 10.8009 24C11.6205 24 12.4064 23.6859 12.985 23.1234Z"
        fill="currentColor" />
</svg>