<svg viewBox="0 0 24 24" xmlns="http://www.w3.org/2000/svg">
    <path fill-rule="evenodd" clip-rule="evenodd"
        d="M21.5999 3.59999C21.5998 3.39552 21.5474 3.19447 21.4478 3.01592C21.3482 2.83737 21.2046 2.68723 21.0306 2.57976C20.8567 2.47229 20.6582 2.41105 20.4539 2.40185C20.2496 2.39265 20.0464 2.4358 19.8635 2.52719L10.5155 7.19999H5.9999C5.04512 7.19999 4.12945 7.57928 3.45432 8.25441C2.77919 8.92954 2.3999 9.84522 2.3999 10.8C2.3999 11.7548 2.77919 12.6704 3.45432 13.3456C4.12945 14.0207 5.04512 14.4 5.9999 14.4H6.3359L8.4611 20.7792C8.54072 21.0182 8.69356 21.2262 8.89796 21.3735C9.10236 21.5208 9.34795 21.6001 9.5999 21.6H10.7999C11.1182 21.6 11.4234 21.4736 11.6484 21.2485C11.8735 21.0235 11.9999 20.7183 11.9999 20.4V15.1416L19.8635 19.0728C20.0464 19.1642 20.2496 19.2073 20.4539 19.1981C20.6582 19.1889 20.8567 19.1277 21.0306 19.0202C21.2046 18.9128 21.3482 18.7626 21.4478 18.5841C21.5474 18.4055 21.5998 18.2045 21.5999 18V3.59999Z"
        fill="currentColor" />
</svg>