<svg viewBox="0 0 24 24" xmlns="http://www.w3.org/2000/svg">
    <path fill-rule="evenodd" clip-rule="evenodd"
        d="M5.0528 2.66667C4.38276 2.66667 3.74016 2.94762 3.26637 3.44772C2.79258 3.94781 2.5264 4.62609 2.5264 5.33333V18.6667C2.5264 19.3739 2.79258 20.0522 3.26637 20.5523C3.74016 21.0524 4.38276 21.3333 5.0528 21.3333H13.8952C14.5653 21.3333 15.2079 21.0524 15.6816 20.5523C16.1554 20.0522 16.4216 19.3739 16.4216 18.6667V17.3333C16.4216 16.597 16.9872 16 17.6848 16C18.3825 16 18.948 16.597 18.948 17.3333V18.6667C18.948 20.0812 18.4157 21.4377 17.4681 22.4379C16.5205 23.4381 15.2353 24 13.8952 24H5.0528C3.71272 24 2.42752 23.4381 1.47993 22.4379C0.532347 21.4377 0 20.0812 0 18.6667V5.33333C0 3.91885 0.532348 2.56229 1.47993 1.5621C2.42752 0.561903 3.71272 0 5.0528 0H13.8952C15.2353 0 16.5205 0.561903 17.4681 1.5621C18.4157 2.56229 18.948 3.91885 18.948 5.33333V6.66667C18.948 7.40305 18.3825 8 17.6848 8C16.9872 8 16.4216 7.40305 16.4216 6.66667V5.33333C16.4216 4.62609 16.1554 3.94781 15.6816 3.44772C15.2079 2.94762 14.5653 2.66667 13.8952 2.66667H5.0528ZM12.262 5.72386C12.7553 6.24456 12.7553 7.08878 12.262 7.60948L9.36564 10.6667H22.7368C23.4344 10.6667 24 11.2636 24 12C24 12.7364 23.4344 13.3333 22.7368 13.3333H9.36564L12.262 16.3905C12.7553 16.9112 12.7553 17.7554 12.262 18.2761C11.7687 18.7968 10.9689 18.7968 10.4756 18.2761L5.42279 12.9428C4.92948 12.4221 4.92948 11.5779 5.42279 11.0572L10.4756 5.72386C10.9689 5.20316 11.7687 5.20316 12.262 5.72386Z"
        fill="currentColor" />
</svg>